<?xml version="1.0" encoding="UTF-8"?>
<!DOCTYPE svg  PUBLIC '-//W3C//DTD SVG 1.1//EN'  'http://www.w3.org/Graphics/SVG/1.1/DTD/svg11.dtd'>
<svg version="1.1" viewBox="0 0 75 75" xmlns="http://www.w3.org/2000/svg">
<g fill="currentcolor">
<path d="m36.49 47-0.01-0.17c0.699-1.881 7.569-15.76-1.131-21.72-6.84 4.39-1.959 18.15 1.09 21.839-0.01 0.021-0.02 0.051-0.01 0.061h-0.01c-0.84 0.109-1.689 0.189-2.57 0.25-0.859-0.029-1.76-0.08-2.66-0.09 0.021-0.01 0.051-0.01 0.061-0.01-1.141-0.07-2.38-0.18-3.35-0.461-3.15-1.039-8.371-4.729-7.09-8.699 1.629-3.29 4.219-6.1 6.56-7.86 3.04-2.69 6.351-4.74 10.78-6.22 4.399-1.64 9.24-2.35 14.189-1.63 3.972 15.369-3.56 23.1-15.849 24.71z" opacity=".5"/>
<path d="m31.193 47.156h0.058c-1.144-0.067-2.383-0.179-3.356-0.472-3.156-1.034-8.422-4.741-7.078-8.73-0.062 0.117-0.116 0.235-0.176 0.354-0.01 0.016-0.018 0.041-0.027 0.059-1.737 3.72-2.797 8.351-2.721 13.799 2.813-3.039 4.528-3.883 6.162-4.53 2.073-0.49 4.629-0.539 7.138-0.48z" opacity=".4"/>
<path d="m53.383 30.628c0.659-2.862 2.016-5.85 3.723-7.795-1.377-0.211-2.978-0.37-4.767-0.547 0.794 3.09 1.12 5.859 1.044 8.342z" opacity=".4"/>
<path d="m33.023 15.459c4.697-3.282 7.677-6.823 7.886-14.202 1.471 6.233 0.069 11.966-7.886 17.272-15.529 9.396-21.343 12.007-16.427 33.637l-8.046-10.422c3.727-20.608 11.763-18.747 24.473-26.285z" opacity=".75"/>
<path d="m41.977 59.539c-4.699 3.281-7.677 6.824-7.886 14.203-1.471-6.234-0.069-11.967 7.886-17.271 15.529-9.397 21.344-12.008 16.428-33.637l8.046 10.421c-3.726 20.606-11.763 18.747-24.474 26.284z" opacity=".85"/>
</g>
</svg>
