<?xml version="1.0" encoding="UTF-8"?>
<svg width="640" height="640" version="1.1" viewBox="0 0 2.4 2.4" xml:space="preserve" xmlns="http://www.w3.org/2000/svg"><path d="m1.2 0.8994-0.3006 0.3006c0.1002 0.1002 0.2004 0.2004 0.3006 0.3006l0.3006-0.3006c-0.1002-0.1002-0.2004-0.2004-0.3006-0.3006zm-0.66152 1.9776e-4c-0.1002 0.1002-0.2004 0.2004-0.30059 0.3006 0.1002 0.1002 0.2004 0.2004 0.3006 0.3006 0.1002-0.1002 0.2004-0.2004 0.30059-0.3006-0.1002-0.1002-0.2004-0.2004-0.3006-0.3006zm1.3226 0c-0.1002 0.1002-0.2004 0.2004-0.30059 0.3006 0.1002 0.1002 0.2004 0.2004 0.3006 0.3006 0.1002-0.1002 0.2004-0.2004 0.30059-0.3006-0.1002-0.1002-0.2004-0.2004-0.3006-0.3006z"/></svg>
