<?xml version="1.0" encoding="UTF-8"?>
<svg width="640" height="640" version="1.1" viewBox="0 0 2.4 2.4" xml:space="preserve" xmlns="http://www.w3.org/2000/svg"><path d="m0.23789 0.48966v0.14462l1.9238 1.2756v-0.14381l-0.42847-0.28428 0.42847-0.28162-0.9625-0.63184-0.42334 0.27825zm0.96133 0.21542 0.74597 0.49512h2.124e-4l-0.31803 0.21136-0.18895-0.12537 0.086975-0.086975-0.32618-0.32421-0.15178 0.15178-0.16628-0.11032zm-0.64225 0.2854-0.31908 0.20972 0.9625 0.63184 0.31426-0.20655-0.10471-0.069434-0.20955 0.13926-0.74597-0.49512h-2.124e-4l0.20928-0.13909zm0.64225 0.054448 0.15625 0.15429-0.019204 0.019204-0.18706-0.12412z"/></svg>
