<?xml version="1.0" encoding="UTF-8"?>
<svg width="640" height="640" version="1.1" viewBox="0 0 2.4 2.4" xml:space="preserve" xmlns="http://www.w3.org/2000/svg"><path d="m1.0238 0.23828-0.064438 0.24048-0.099609 0.041257-0.21561-0.12448-0.24896 0.24896 0.12448 0.21561-0.041257 0.099609-0.24048 0.064438v0.35208l0.24048 0.064438 0.041257 0.099609-0.12448 0.21561 0.24896 0.24896 0.21561-0.12448 0.099609 0.041257 0.064438 0.24048h0.35208l0.064438-0.24048 0.099609-0.041257 0.21561 0.12448 0.24896-0.24896-0.12448-0.21561 0.041257-0.099609 0.24048-0.064438v-0.35208l-0.24048-0.064438-0.041257-0.099609 0.12448-0.21561-0.24896-0.24896-0.21561 0.12448-0.099609-0.041257-0.064438-0.24048zm0.17604 0.60119 0.36073 0.36073-0.36073 0.36072-0.36072-0.36072z"/></svg>
