<?xml version="1.0" encoding="UTF-8"?>
<svg width="640" height="640" version="1.1" viewBox="0 0 2.4 2.4" xml:space="preserve" xmlns="http://www.w3.org/2000/svg"><path d="m1.1998 0.23828 0.38438 0.66211h0.27773zm0 0-0.6621 0.66211h0.27773zm0.00196 0.23828-0.24699 0.42383h0.49168zm-0.78321 0.54297-0.18067 0.18067 0.18066 0.18066h0.32771l-0.10488-0.18066 0.10488-0.18067zm0.46679 0-0.10529 0.18067 0.10507 0.18066h0.62934l0.10507-0.18066-0.1043-0.18067zm0.768 0 0.10488 0.18067-0.10488 0.18066h0.32771l0.18066-0.18066-0.18067-0.18067zm-1.1156 0.48047 0.66211 0.66211-0.38437-0.66211zm0.66211 0.66211 0.66212-0.66211h-0.27774zm-0.24537-0.66211 0.24537 0.42188 0.24537-0.42188z"/></svg>
