<?xml version="1.0" encoding="UTF-8"?>
<svg width="640" height="640" version="1.1" viewBox="0 0 2.4 2.4" xml:space="preserve" xmlns="http://www.w3.org/2000/svg"><path d="m1.6808 0.23828c-0.065935 0.065935-0.13187 0.13187-0.19781 0.19781 0.15998 0.16063 0.31996 0.32125 0.47993 0.48188-0.027996 0.027996-0.055991 0.055991-0.083987 0.083987-0.16016-0.16016-0.32031-0.32031-0.48047-0.48047 0.035093-0.035778 0.043723-0.044788 0.00326-0.004138-0.30778 0.30777-0.61555 0.61555-0.92332 0.92332-0.08016 0.24048-0.16032 0.48096-0.24048 0.72144 0.24048-0.08016 0.48096-0.16032 0.72144-0.24048 0.4008-0.4008 0.80159-0.80159 1.2024-1.2024-0.16032-0.16032-0.32064-0.32064-0.48096-0.48096z"/></svg>
