<?xml version="1.0" encoding="UTF-8"?>
<svg width="640" height="640" version="1.1" viewBox="0 0 2.4 2.4" xml:space="preserve" xmlns="http://www.w3.org/2000/svg"><path d="m1.1998 0.23827c-0.045804 0.045807-0.091608 0.091613-0.13741 0.13742v0.20613c0.045804-0.045807 0.091608-0.091613 0.13741-0.13742 0.045807 0.045807 0.091613 0.091613 0.13742 0.13742v-0.20613c-0.045807-0.045807-0.091613-0.091613-0.13742-0.13742zm-0.63555 0.32636c2.79e-6 0.06478 5.58e-6 0.12956 8.37e-6 0.19434 0.057258 0.057258 0.11452 0.11452 0.17177 0.17177-2.79e-6 -0.064777-5.59e-6 -0.12955-8.38e-6 -0.19433h0.19434c-0.057258-0.05726-0.11452-0.11452-0.17177-0.17178h-0.19434zm1.2711 0c-0.06478 2.79e-6 -0.12956 5.59e-6 -0.19434 8.37e-6 -0.057257 0.057258-0.11452 0.11452-0.17177 0.17177h0.19434v0.19434c0.057257-0.05726 0.11452-0.11452 0.17177-0.17178v-0.19434zm-0.63556 0.085891c-0.18322 0.18322-0.36644 0.36645-0.54966 0.54967 0.18322 0.18322 0.36644 0.36644 0.54966 0.54966 0.18322-0.18322 0.36645-0.36644 0.54967-0.54966-0.18322-0.18322-0.36645-0.36645-0.54967-0.54967zm-0.82449 0.41225c-0.045807 0.045807-0.091613 0.091613-0.13742 0.13742 0.045807 0.045804 0.091613 0.091608 0.13742 0.13741h0.20613c-0.045807-0.045804-0.091613-0.091607-0.13742-0.13741 0.045807-0.045807 0.091613-0.091613 0.13742-0.13742h-0.20613zm1.4429 0 0.13742 0.13742c-0.045807 0.045802-0.091613 0.091602-0.13742 0.1374 0.068709 2.7e-6 0.13742 5.6e-6 0.20613 8.3e-6 0.045807-0.045804 0.091613-0.091607 0.13742-0.13741l-0.13742-0.13742h-0.20613zm-0.1546 0.40686v0.19434c-0.064778-2.8e-6 -0.12955-5.6e-6 -0.19433-8.4e-6 0.057257 0.057258 0.11452 0.11452 0.17177 0.17177l0.19434 8.4e-6v-0.19435c-0.05726-0.057255-0.11452-0.11451-0.17178-0.17176zm-0.92755 8.4e-6c-0.057258 0.057255-0.11452 0.11451-0.17177 0.17176l-8.37e-6 0.19434h0.19435c0.057255-0.057257 0.11451-0.11452 0.17176-0.17177h-0.19434c2.79e-6 -0.064778 5.59e-6 -0.12955 8.38e-6 -0.19433zm0.32636 0.34893v0.20613c0.045804 0.045807 0.091608 0.091613 0.13741 0.13742l0.13742-0.13742v-0.20613l-0.13742 0.13742c-0.045804-0.045807-0.091608-0.091613-0.13741-0.13742z"/></svg>
